<svg class="animated" id="freepik_stories-folder" xmlns="http://www.w3.org/2000/svg" viewBox="0 0 500 500" version="1.1" xmlns:xlink="http://www.w3.org/1999/xlink" xmlns:svgjs="http://svgjs.com/svgjs"><style>svg#freepik_stories-folder:not(.animated) .animable {opacity: 0;}svg#freepik_stories-folder.animated #freepik--folder--inject-77 {animation: 1.5s Infinite  linear wind;animation-delay: 0s;}svg#freepik_stories-folder.animated #freepik--Plant--inject-77 {animation: 1.5s Infinite  linear floating;animation-delay: 0s;}svg#freepik_stories-folder.animated #freepik--Character--inject-77 {animation: 1s 1 forwards linear slideRight;animation-delay: 0s;}svg#freepik_stories-folder.animated #freepik--Cursor--inject-77 {animation: 1s 1 forwards cubic-bezier(.36,-0.01,.5,1.38) slideDown;animation-delay: 0s;}            @keyframes wind {                0% {                    transform: rotate( 0deg );                }                25% {                    transform: rotate( 1deg );                }                75% {                    transform: rotate( -1deg );                }            }                    @keyframes floating {                0% {                    opacity: 1;                    transform: translateY(0px);                }                50% {                    transform: translateY(-10px);                }                100% {                    opacity: 1;                    transform: translateY(0px);                }            }                    @keyframes slideRight {                0% {                    opacity: 0;                    transform: translateX(30px);                }                100% {                    opacity: 1;                    transform: translateX(0);                }            }                    @keyframes slideDown {                0% {                    opacity: 0;                    transform: translateY(-30px);                }                100% {                    opacity: 1;                    transform: translateY(0);                }            }        .animator-hidden { display: none; }</style><g id="freepik--Floor--inject-77" class="animable" style="transform-origin: 250px 331.2px;"><ellipse id="freepik--floor--inject-77" cx="250" cy="331.2" rx="237.13" ry="152.37" style="fill: rgb(245, 245, 245); transform-origin: 250px 331.2px;" class="animable"></ellipse></g><g id="freepik--Shadows--inject-77" class="animable" style="transform-origin: 253.223px 296.012px;"><path id="freepik--Shadow--inject-77" d="M226.54,210.11l68.79-39.71a3.33,3.33,0,0,1,3,0l50.17,29a.92.92,0,0,1,0,1.74l-68.79,39.71a3.33,3.33,0,0,1-3,0l-50.17-29A.92.92,0,0,1,226.54,210.11Z" style="fill: rgb(230, 230, 230); transform-origin: 287.52px 205.625px;" class="animable"></path><polygon id="freepik--shadow--inject-77" points="139.73 421.98 74.39 384.25 266.57 273.3 331.91 311.02 139.73 421.98" style="fill: rgb(230, 230, 230); transform-origin: 203.15px 347.64px;" class="animable"></polygon><path id="freepik--shadow--inject-77" d="M54.5,367.52c-11,6.35-11,16.63,0,23s28.79,6.34,39.78,0,11-16.62,0-23S65.48,361.18,54.5,367.52Z" style="fill: rgb(230, 230, 230); transform-origin: 74.3881px 379.018px;" class="animable"></path><path id="freepik--shadow--inject-77" d="M371.9,341.69c-20.2,11.66-20.2,30.57,0,42.23s53,11.67,73.16,0,20.2-30.57,0-42.23S392.1,330,371.9,341.69Z" style="fill: rgb(230, 230, 230); transform-origin: 408.473px 362.801px;" class="animable"></path></g><g id="freepik--Cabinet--inject-77" class="animable" style="transform-origin: 298.49px 136.5px;"><g id="freepik--cabinet--inject-77" class="animable" style="transform-origin: 298.49px 136.5px;"><g id="freepik--cabinet--inject-77" class="animable" style="transform-origin: 287.525px 136.5px;"><polygon points="278.21 235.06 234.76 209.97 234.76 73.78 278.21 98.87 278.21 235.06" style="fill: rgb(38, 50, 56); transform-origin: 256.485px 154.42px;" id="elyzpe0tw20qm" class="animable"></polygon><polygon points="278.21 98.87 340.29 63.03 340.29 199.22 278.21 235.06 278.21 98.87" style="fill: rgb(55, 71, 79); transform-origin: 309.25px 149.045px;" id="eljfq61pjjp98" class="animable"></polygon><polygon points="340.29 63.03 278.21 98.87 234.76 73.78 296.84 37.94 340.29 63.03" style="fill: rgb(69, 90, 100); transform-origin: 287.525px 68.405px;" id="eltnu8tf7h5tf" class="animable"></polygon><polygon points="284.42 187.13 334.08 158.46 334.08 192.98 335.22 193.64 285.56 222.31 284.42 221.65 284.42 187.13" style="fill: rgb(38, 50, 56); transform-origin: 309.82px 190.385px;" id="el1scvqmjw3uf" class="animable"></polygon><polygon points="285.56 187.79 335.22 159.12 335.22 193.64 285.56 222.31 285.56 187.79" style="fill: rgb(69, 90, 100); transform-origin: 310.39px 190.715px;" id="elznv3hklcw4o" class="animable"></polygon><g id="eldwqhusp20ro"><g style="opacity: 0.05; transform-origin: 310.39px 190.715px;" class="animable"><polygon points="285.56 187.79 335.22 159.12 335.22 193.64 285.56 222.31 285.56 187.79" id="ellkodhufqskq" class="animable" style="transform-origin: 310.39px 190.715px;"></polygon></g></g><path d="M305,182.41l8.44-4.88c1.1-.63,2-.34,2,.65a4,4,0,0,1-2,2.93L305,186c-1.1.63-2,.34-2-.65A4,4,0,0,1,305,182.41Z" style="fill: rgb(38, 50, 56); transform-origin: 309.22px 181.765px;" id="el6bg98nzhf6t" class="animable"></path><polygon points="284.42 145.46 334.08 116.79 334.08 151.3 335.22 151.96 285.56 180.63 284.42 179.97 284.42 145.46" style="fill: rgb(38, 50, 56); transform-origin: 309.82px 148.71px;" id="elekb35rdjlb" class="animable"></polygon><polygon points="285.56 146.12 335.22 117.45 335.22 151.96 285.56 180.63 285.56 146.12" style="fill: rgb(69, 90, 100); transform-origin: 310.39px 149.04px;" id="ellgamngbrge" class="animable"></polygon><g id="elooe896yiwqm"><g style="opacity: 0.05; transform-origin: 310.39px 149.04px;" class="animable"><polygon points="285.56 146.12 335.22 117.45 335.22 151.96 285.56 180.63 285.56 146.12" id="elue9ubfy80nf" class="animable" style="transform-origin: 310.39px 149.04px;"></polygon></g></g><path d="M305,140.73l8.44-4.88c1.1-.63,2-.34,2,.65a4,4,0,0,1-2,2.94L305,144.31c-1.1.64-2,.35-2-.64A4,4,0,0,1,305,140.73Z" style="fill: rgb(38, 50, 56); transform-origin: 309.22px 140.084px;" id="el4v2vdwee07" class="animable"></path><polygon points="284.42 103.78 334.08 75.11 334.08 109.62 284.42 138.29 284.42 103.78" style="fill: rgb(38, 50, 56); transform-origin: 309.25px 106.7px;" id="elbnmmiime2y" class="animable"></polygon></g><g id="freepik--Drawer--inject-77" class="animable" style="transform-origin: 323.89px 116.405px;"><polygon points="358.91 95.29 331.36 79.39 331.36 109.79 358.91 125.69 358.91 95.29" style="fill: rgb(55, 71, 79); transform-origin: 345.135px 102.54px;" id="el68gb5t5fi1" class="animable"></polygon><g id="elvsw28ox3syf"><g style="opacity: 0.1; transform-origin: 345.135px 102.54px;" class="animable"><polygon points="358.91 95.29 331.36 79.39 331.36 109.79 358.91 125.69 358.91 95.29" id="elq7eui4imxs" class="animable" style="transform-origin: 345.135px 102.54px;"></polygon></g></g><polygon points="333.28 78.27 331.36 79.38 358.91 95.29 360.84 94.17 333.28 78.27" style="fill: rgb(69, 90, 100); transform-origin: 346.1px 86.78px;" id="elbj0f1i15u34" class="animable"></polygon><path d="M341,81.63a.71.71,0,0,0-.26-.62l-.07,0-1.41-.81h0a.69.69,0,0,0-.68.07L310.55,96.41l-.82-3.3a.91.91,0,0,0-.4-.54h0l-1.46-.85h0a.85.85,0,0,0-.88,0l-11.94,6.89a2.15,2.15,0,0,0-1,1.69v39.81a.69.69,0,0,0,.26.62h0l1.5.87h0a.68.68,0,0,0,.66-.08l43.59-25.17a2.13,2.13,0,0,0,1-1.68Z" style="fill: rgb(59, 130, 246); transform-origin: 317.553px 110.896px;" id="el1b9uh7ya8xw" class="animable"></path><path d="M341,81.63l0,33.07a2.12,2.12,0,0,1-1,1.68l-43.7,25.23a.57.57,0,0,1-.86-.49V101.17a2,2,0,0,1,.28-1,2.11,2.11,0,0,1,.69-.73l11.94-6.89a.88.88,0,0,1,.87,0l0,0h0a.86.86,0,0,1,.4.53l.82,3.3.13.35a.85.85,0,0,0,1.3.52l28.09-16.21a.73.73,0,0,1,.64-.09l0,0h0A.68.68,0,0,1,341,81.63Z" style="fill: rgb(59, 130, 246); transform-origin: 318.221px 111.301px;" id="el1dymhsi2a8y" class="animable"></path><g id="el2hkk0vq38t"><path d="M341,81.63l0,33.07a2.12,2.12,0,0,1-1,1.68l-43.7,25.23a.57.57,0,0,1-.86-.49V101.17a2,2,0,0,1,.28-1,2.11,2.11,0,0,1,.69-.73l11.94-6.89a.88.88,0,0,1,.87,0l0,0h0a.86.86,0,0,1,.4.53l.82,3.3.13.35a.85.85,0,0,0,1.3.52l28.09-16.21a.73.73,0,0,1,.64-.09l0,0h0A.68.68,0,0,1,341,81.63Z" style="opacity: 0.15; transform-origin: 318.221px 111.301px;" class="animable"></path></g><g id="elzfq94otvm5"><path d="M295.88,141.64h0l-1.5-.87a.72.72,0,0,1-.27-.62V100.32a2.05,2.05,0,0,1,.29-.95l1.45.85h0a2,2,0,0,0-.28,1v40A.56.56,0,0,0,295.88,141.64Z" style="opacity: 0.35; transform-origin: 294.994px 120.505px;" class="animable"></path></g><path d="M345.72,84.36a.71.71,0,0,0-.26-.62l-.07,0L344,82.88h0a.69.69,0,0,0-.68.07L315.23,99.13l-.82-3.29a.91.91,0,0,0-.4-.54h0l-1.46-.85h0a.86.86,0,0,0-.89,0l-11.94,6.89a2.16,2.16,0,0,0-1,1.68v39.82a.66.66,0,0,0,.27.61h0l1.5.88h0a.74.74,0,0,0,.66-.08l43.59-25.17a2.16,2.16,0,0,0,1-1.68Z" style="fill: rgb(59, 130, 246); transform-origin: 322.228px 113.597px;" id="elispmnmrg9wo" class="animable"></path><g id="eleo3zyzxun5c"><path d="M314,95.29a.85.85,0,0,0-.87,0l-11.94,6.89a2,2,0,0,0-.69.72L299,102.1a1.93,1.93,0,0,1,.68-.73l11.94-6.89a.86.86,0,0,1,.89,0h0Z" style="fill: rgb(255, 255, 255); opacity: 0.15; transform-origin: 306.5px 98.628px;" class="animable"></path></g><g id="elkxhlovdfpig"><path d="M345.39,83.7a.74.74,0,0,0-.64.1L316.66,100a.85.85,0,0,1-1.3-.51l-.13-.36L343.3,83a.85.85,0,0,1,.43-.13.51.51,0,0,1,.25.06h0Z" style="fill: rgb(255, 255, 255); opacity: 0.15; transform-origin: 330.31px 91.5068px;" class="animable"></path></g><path d="M345.72,84.36l0,33.07a2.16,2.16,0,0,1-1,1.68l-43.7,25.23a.57.57,0,0,1-.86-.49V103.9a2,2,0,0,1,.28-1,2,2,0,0,1,.69-.73l11.94-6.89a.88.88,0,0,1,.87,0h0a.91.91,0,0,1,.4.54l.82,3.29.13.36a.85.85,0,0,0,1.29.52l28.1-16.21a.72.72,0,0,1,.63-.1l0,0h0A.71.71,0,0,1,345.72,84.36Z" style="fill: rgb(59, 130, 246); transform-origin: 322.94px 114.033px;" id="elbveb9rf300a" class="animable"></path><g id="elddw9q59jhr7"><path d="M300.56,144.37h0l-1.51-.87a.71.71,0,0,1-.26-.62V103.05a1.91,1.91,0,0,1,.29-1l1.45.84h0a2,2,0,0,0-.28,1v39.94A.56.56,0,0,0,300.56,144.37Z" style="opacity: 0.2; transform-origin: 299.673px 123.21px;" class="animable"></path></g><path d="M350.4,87.08a.66.66,0,0,0-.27-.61l-.07,0-1.4-.82h0a.68.68,0,0,0-.69.07l-28.06,16.18-.82-3.3a.91.91,0,0,0-.4-.53h0l-1.46-.85h0a.87.87,0,0,0-.89,0L304.4,104.1a2.16,2.16,0,0,0-1,1.68V145.6a.69.69,0,0,0,.26.61h0l1.51.87h0a.68.68,0,0,0,.66-.08l43.59-25.16a2.18,2.18,0,0,0,1-1.69Z" style="fill: rgb(59, 130, 246); transform-origin: 326.908px 116.359px;" id="el9b06jkpzy3u" class="animable"></path><g id="el5c0qbqjimpv"><path d="M318.67,98a.88.88,0,0,0-.87,0l-11.94,6.89a2.11,2.11,0,0,0-.69.73l-1.45-.85a1.89,1.89,0,0,1,.68-.72l11.94-6.89a.89.89,0,0,1,.89,0h0Z" style="fill: rgb(255, 255, 255); opacity: 0.3; transform-origin: 311.195px 101.33px;" class="animable"></path></g><g id="elifmbt7gdx6"><path d="M350.06,86.43a.71.71,0,0,0-.63.09l-28.1,16.21a.84.84,0,0,1-1.29-.52l-.13-.35L348,85.68a.9.9,0,0,1,.43-.14.49.49,0,0,1,.25.07h0Z" style="fill: rgb(255, 255, 255); opacity: 0.3; transform-origin: 334.985px 94.2065px;" class="animable"></path></g><path d="M350.4,87.08l0,33.08a2.14,2.14,0,0,1-1,1.68l-43.7,25.23a.57.57,0,0,1-.85-.5V106.63a1.93,1.93,0,0,1,.28-1,2.06,2.06,0,0,1,.68-.72l11.94-6.9a.89.89,0,0,1,.88,0h0a.92.92,0,0,1,.41.54l.82,3.29.13.36a.84.84,0,0,0,1.29.51l28.1-16.21a.71.71,0,0,1,.63-.09l0,0h0A.67.67,0,0,1,350.4,87.08Z" style="fill: rgb(59, 130, 246); transform-origin: 327.626px 116.758px;" id="elmxmffvv1f3l" class="animable"></path><g id="elsgt3z3m2wbp"><path d="M350.4,87.08l0,33.08a2.14,2.14,0,0,1-1,1.68l-43.7,25.23a.57.57,0,0,1-.85-.5V106.63a1.93,1.93,0,0,1,.28-1,2.06,2.06,0,0,1,.68-.72l11.94-6.9a.89.89,0,0,1,.88,0h0a.92.92,0,0,1,.41.54l.82,3.29.13.36a.84.84,0,0,0,1.29.51l28.1-16.21a.71.71,0,0,1,.63-.09l0,0h0A.67.67,0,0,1,350.4,87.08Z" style="fill: rgb(255, 255, 255); opacity: 0.15; transform-origin: 327.626px 116.758px;" class="animable"></path></g><g id="el4uwi4batdgd"><path d="M305.24,147.1l0,0-1.51-.87a.71.71,0,0,1-.26-.61V105.78a2,2,0,0,1,.29-1l1.45.85h0a2,2,0,0,0-.28,1v39.94A.56.56,0,0,0,305.24,147.1Z" style="opacity: 0.05; transform-origin: 304.354px 125.94px;" class="animable"></path></g><path d="M355.08,89.81a.66.66,0,0,0-.27-.61l-.07,0-1.4-.82h0a.69.69,0,0,0-.68.07l-28.06,16.19-.82-3.3a.92.92,0,0,0-.41-.54h0l-1.46-.85h0a.86.86,0,0,0-.89,0l-11.94,6.9a2.12,2.12,0,0,0-1,1.68v39.81a.71.71,0,0,0,.26.62h0l1.5.87h0a.7.7,0,0,0,.67-.08l43.58-25.17a2.14,2.14,0,0,0,1-1.68Z" style="fill: rgb(59, 130, 246); transform-origin: 331.583px 119.101px;" id="elbuy4fgb1ctv" class="animable"></path><g id="eln1svpmty9y"><path d="M323.34,100.74a.88.88,0,0,0-.87,0l-11.94,6.89a2.09,2.09,0,0,0-.68.73l-1.46-.85a2.11,2.11,0,0,1,.69-.73L321,99.93a.86.86,0,0,1,.89,0h0Z" style="fill: rgb(255, 255, 255); opacity: 0.5; transform-origin: 315.865px 104.083px;" class="animable"></path></g><g id="eltglu5cndtgl"><path d="M354.74,89.16a.68.68,0,0,0-.63.09L326,105.46a.84.84,0,0,1-1.29-.52l-.13-.35L352.65,88.4a.85.85,0,0,1,.43-.13.49.49,0,0,1,.25.06h0Z" style="fill: rgb(255, 255, 255); opacity: 0.5; transform-origin: 339.66px 96.9364px;" class="animable"></path></g><path d="M355.08,89.81v33.07a2.15,2.15,0,0,1-1,1.69l-43.7,25.22a.57.57,0,0,1-.86-.49v-40a1.94,1.94,0,0,1,.29-.95,2,2,0,0,1,.68-.72l11.94-6.9a.88.88,0,0,1,.87,0l0,0h0a.87.87,0,0,1,.41.53l.82,3.3.13.35a.84.84,0,0,0,1.29.52l28.1-16.21a.71.71,0,0,1,.63-.09l0,0h0A.69.69,0,0,1,355.08,89.81Z" style="fill: rgb(59, 130, 246); transform-origin: 332.301px 119.481px;" id="elm2cbhykasoa" class="animable"></path><g id="elux0x9blobm"><path d="M355.08,89.81v33.07a2.15,2.15,0,0,1-1,1.69l-43.7,25.22a.57.57,0,0,1-.86-.49v-40a1.94,1.94,0,0,1,.29-.95,2,2,0,0,1,.68-.72l11.94-6.9a.88.88,0,0,1,.87,0l0,0h0a.87.87,0,0,1,.41.53l.82,3.3.13.35a.84.84,0,0,0,1.29.52l28.1-16.21a.71.71,0,0,1,.63-.09l0,0h0A.69.69,0,0,1,355.08,89.81Z" style="fill: rgb(255, 255, 255); opacity: 0.3; transform-origin: 332.301px 119.481px;" class="animable"></path></g><polygon points="313.11 121.73 285.56 105.83 285.56 136.23 313.11 152.13 313.11 121.73" style="fill: rgb(55, 71, 79); transform-origin: 299.335px 128.98px;" id="elgpx0a079v4o" class="animable"></polygon><polygon points="287.49 104.71 285.56 105.82 313.11 121.73 315.04 120.61 287.49 104.71" style="fill: rgb(69, 90, 100); transform-origin: 300.3px 113.22px;" id="eli47rebp4iup" class="animable"></polygon><polygon points="312.56 120.03 362.22 91.36 362.22 125.87 312.56 154.54 312.56 120.03" style="fill: rgb(69, 90, 100); transform-origin: 337.39px 122.95px;" id="elvjwnls7iqz8" class="animable"></polygon><path d="M332,114.64l8.45-4.88c1.1-.63,2-.34,2,.65a4,4,0,0,1-2,2.94L332,118.22c-1.09.63-2,.34-2-.64A4,4,0,0,1,332,114.64Z" style="fill: rgb(38, 50, 56); transform-origin: 336.225px 113.99px;" id="eljzl20v71min" class="animable"></path><polygon points="312.56 120.03 310.9 119.07 310.9 153.59 312.56 154.54 312.56 120.03" style="fill: rgb(38, 50, 56); transform-origin: 311.73px 136.805px;" id="el9f157gq4c9t" class="animable"></polygon><polygon points="310.9 119.07 360.56 90.4 362.22 91.36 312.56 120.03 310.9 119.07" style="fill: rgb(55, 71, 79); transform-origin: 336.56px 105.215px;" id="elmtf6ky50att" class="animable"></polygon></g></g></g><g id="freepik--Window--inject-77" class="animable" style="transform-origin: 131.809px 180.169px;"><g id="freepik--window--inject-77" class="animable" style="transform-origin: 131.809px 180.169px;"><g id="freepik--window--inject-77" class="animable" style="transform-origin: 131.809px 180.169px;"><path d="M225.3,49a1.35,1.35,0,0,0-.06-.35.11.11,0,0,0,0-.08,1.15,1.15,0,0,0-.09-.33,1.67,1.67,0,0,0-.22-.49.69.69,0,0,0-.13-.2.76.76,0,0,0-.11-.14,1.18,1.18,0,0,0-.25-.25l0,0a2.07,2.07,0,0,0-.32-.19,2.8,2.8,0,0,0-2.57.33L47,148a8.46,8.46,0,0,0-3.82,6.62V313.7A2.64,2.64,0,0,0,44.5,316a.91.91,0,0,1,.17.09l.2.11a1.17,1.17,0,0,0,.33.11,2,2,0,0,0,.49.07A2.5,2.5,0,0,0,47,316l.1,0h0l3.64-2.1,170.81-98.68a8.44,8.44,0,0,0,3.82-6.62V49.44A3.64,3.64,0,0,0,225.3,49Z" style="fill: rgb(250, 250, 250); transform-origin: 134.275px 181.589px;" id="elgdeya4pnkso" class="animable"></path><path d="M223.2,47.64a1.22,1.22,0,0,1,.5.11l.11.06.06,0,.07.07L224,48l0,0,0,0,.07.12a1,1,0,0,1,.11.23.64.64,0,0,0,0,.07.27.27,0,0,1,0,.11l0,.13,0,.14c0,.05,0,.1,0,.14s0,.26,0,.4V208.57a7.54,7.54,0,0,1-3.36,5.82L50.24,313.06l-3.61,2.09,0,0h0l-.1.06a1.67,1.67,0,0,1-.75.24h-.05a1.17,1.17,0,0,1-.29,0l-.11,0-.13-.07-.14-.08-.08,0a1.68,1.68,0,0,1-.88-1.49V154.63a7.56,7.56,0,0,1,3.36-5.82L222,48a2.56,2.56,0,0,1,1.23-.4m0-.92a3.43,3.43,0,0,0-1.69.51L47,148a8.46,8.46,0,0,0-3.82,6.62V313.7A2.64,2.64,0,0,0,44.5,316a.91.91,0,0,1,.17.09l.2.11a1.17,1.17,0,0,0,.33.11,2,2,0,0,0,.49.07h.05A2.51,2.51,0,0,0,47,316l.1,0h0l3.64-2.1,170.81-98.68a8.44,8.44,0,0,0,3.82-6.62V49.44a3.64,3.64,0,0,0,0-.48,1.35,1.35,0,0,0-.06-.35.11.11,0,0,0,0-.08,1.15,1.15,0,0,0-.09-.33,1.67,1.67,0,0,0-.22-.49.69.69,0,0,0-.13-.2.76.76,0,0,0-.11-.14,1.18,1.18,0,0,0-.25-.25l0,0a2.07,2.07,0,0,0-.32-.19,2.13,2.13,0,0,0-.88-.18Z" style="fill: rgb(224, 224, 224); transform-origin: 134.279px 181.53px;" id="elv41ztpss2w9" class="animable"></path><path d="M44.5,316l-.2-.11-4-2.33a4,4,0,0,1-2-3,3.43,3.43,0,0,1,0-.56V159.18L43.13,162v151.8A2.57,2.57,0,0,0,44.48,316Z" style="fill: rgb(224, 224, 224); transform-origin: 41.3943px 237.59px;" id="elelc3gk3g08m" class="animable"></path><path d="M224.08,46.9a2.8,2.8,0,0,0-2.57.33L47,148a8.46,8.46,0,0,0-3.82,6.62V162l-4.88-2.86v-7.32a8.44,8.44,0,0,1,3.81-6.61L216.63,44.47a2.64,2.64,0,0,1,2.77-.22C220.09,44.66,223.26,46.48,224.08,46.9Z" style="fill: rgb(245, 245, 245); transform-origin: 131.19px 102.979px;" id="elhar7ngdpuc" class="animable"></path><path d="M225.32,49.41c0-2.41-1.72-3.39-3.82-2.17L47,148a8.45,8.45,0,0,0-3.82,6.62V162L225.32,56.87Z" style="fill: rgb(235, 235, 235); transform-origin: 134.25px 104.357px;" id="elqb7dvym5az" class="animable"></path><g id="eli8mhnp748d"><path d="M38.24,159.19v-7.34A7.9,7.9,0,0,1,39.41,148l4.87,2.8a7.72,7.72,0,0,0-1.15,3.8V162Z" style="opacity: 0.15; transform-origin: 41.26px 155px;" class="animable"></path></g><g id="elmf0qrvscw9"><g style="opacity: 0.15; transform-origin: 215.49px 56.4694px;" class="animable"><path d="M210.27,57.26a3.81,3.81,0,0,0-1.46,3.07c0,1.23.65,1.86,1.46,1.4a3.85,3.85,0,0,0,1.45-3.08C211.72,57.42,211.07,56.79,210.27,57.26Z" id="eltl7x0sot5tl" class="animable" style="transform-origin: 210.265px 59.4923px;"></path><path d="M215.49,54.23A3.85,3.85,0,0,0,214,57.31c0,1.23.65,1.86,1.45,1.39a3.81,3.81,0,0,0,1.45-3.07C216.94,54.4,216.29,53.77,215.49,54.23Z" id="el7k0hwkewor9" class="animable" style="transform-origin: 215.451px 56.4677px;"></path><path d="M220.72,51.21a3.8,3.8,0,0,0-1.45,3.07c0,1.24.64,1.86,1.45,1.4a3.83,3.83,0,0,0,1.45-3.07C222.17,51.37,221.52,50.75,220.72,51.21Z" id="elaqruai4q7hq" class="animable" style="transform-origin: 220.72px 53.445px;"></path></g></g></g></g><g id="freepik--Folders--inject-77" class="animable" style="transform-origin: 136.592px 220.951px;"><path d="M56.9,282.08a1,1,0,0,1-.5-.14,1,1,0,0,1-.5-.87V240.88a2.41,2.41,0,0,1,.34-1.17,2.46,2.46,0,0,1,.84-.88l12-6.94a1.27,1.27,0,0,1,1.29,0,1.4,1.4,0,0,1,.63.8l1,3.24a.48.48,0,0,0,.27.33.52.52,0,0,0,.41-.06l28.27-16.31a1.12,1.12,0,0,1,1-.11l.13.07a1.09,1.09,0,0,1,.47,1V254.5a2.59,2.59,0,0,1-1.19,2.06l-44,25.38A1,1,0,0,1,56.9,282.08Zm12.89-49.54a.51.51,0,0,0-.27.09l-12,6.93a1.76,1.76,0,0,0-.77,1.32v40.19a.16.16,0,0,0,.08.14.18.18,0,0,0,.16,0l44-25.38a1.75,1.75,0,0,0,.76-1.32V220.78a.37.37,0,0,0-.06-.25l-.06,0a.51.51,0,0,0-.22.09L73.1,236.89a1.27,1.27,0,0,1-1.92-.76l-1-3.24a.52.52,0,0,0-.22-.29A.36.36,0,0,0,69.79,232.54Z" style="fill: rgb(224, 224, 224); transform-origin: 79.2273px 250.895px;" id="el2st08epwsg8" class="animable"></path><g id="freepik--Folder--inject-77" class="animable" style="transform-origin: 84.3558px 253.928px;"><path d="M108.19,224.39a.66.66,0,0,0-.27-.61h0l-1.82-1.06h0a.71.71,0,0,0-.69.07l-28,16.13-.75-2.51a.93.93,0,0,0-.41-.54h0l-1.83-1.06h0a.88.88,0,0,0-.9,0l-12,6.94a2.16,2.16,0,0,0-1,1.69v40.07a.69.69,0,0,0,.27.61h0l1.82,1.05h0a.71.71,0,0,0,.66-.08l43.86-25.33a2.16,2.16,0,0,0,1-1.69Z" style="fill: rgb(230, 230, 230); transform-origin: 84.3558px 253.939px;" id="elugwmhg08eob" class="animable"></path><path d="M76.24,235.83a.9.9,0,0,0-.88,0l-12,6.94a2,2,0,0,0-.69.73l-1.83-1.06a1.87,1.87,0,0,1,.69-.73l12-6.94a.88.88,0,0,1,.9,0h0Z" style="fill: rgb(240, 240, 240); transform-origin: 68.54px 239.073px;" id="elmq1kn2yc52q" class="animable"></path><path d="M107.85,223.74a.7.7,0,0,0-.64.09L78.94,240.14a.85.85,0,0,1-1.3-.52l-.22-.72,28-16.13a.85.85,0,0,1,.43-.13.49.49,0,0,1,.25.06h0Z" style="fill: rgb(240, 240, 240); transform-origin: 92.635px 231.461px;" id="elygzj3fjdj5a" class="animable"></path><g id="el2ks6a0se4tu"><path d="M62.51,285.06l.1.1-1.78-1h0v0a.45.45,0,0,1-.17-.19.37.37,0,0,1,0-.11,1,1,0,0,1-.05-.32V243.32c0-.08,0-.16,0-.24s0-.08,0-.13.09-.24.14-.36l.07-.11,1.83,1.06a1.93,1.93,0,0,0-.28,1v40.06a1.09,1.09,0,0,0,0,.18.29.29,0,0,0,0,.09s0,0,0,.05a.33.33,0,0,0,0,.06A.34.34,0,0,0,62.51,285.06Z" style="opacity: 0.15; transform-origin: 61.63px 263.82px;" class="animable"></path></g></g><path d="M111.45,250.58a1,1,0,0,1-1-1V209.39a2.54,2.54,0,0,1,1.19-2l12-6.94a1.27,1.27,0,0,1,1.3,0,1.31,1.31,0,0,1,.62.8l1,3.24a.47.47,0,0,0,.27.32.5.5,0,0,0,.42-.05l28.27-16.31a1.09,1.09,0,0,1,1-.11l.13.06a1.11,1.11,0,0,1,.46,1V223a2.61,2.61,0,0,1-1.18,2.06l-44,25.38A1,1,0,0,1,111.45,250.58Zm12.89-49.53a.56.56,0,0,0-.27.08l-12,6.94a1.75,1.75,0,0,0-.76,1.32v40.19a.14.14,0,0,0,.08.13.15.15,0,0,0,.16,0l44-25.38a1.73,1.73,0,0,0,.77-1.32V189.29a.39.39,0,0,0-.07-.26l-.05,0a.61.61,0,0,0-.23.08L127.64,205.4a1.28,1.28,0,0,1-1.92-.76l-1-3.24a.56.56,0,0,0-.21-.3A.49.49,0,0,0,124.34,201.05Z" style="fill: rgb(224, 224, 224); transform-origin: 133.782px 219.423px;" id="el9rf104j9hxr" class="animable"></path><g id="freepik--folder--inject-77" class="animable" style="transform-origin: 138.924px 222.41px;"><path d="M162.74,192.9a.72.72,0,0,0-.27-.62h0l0,0-1.82-1h0a.66.66,0,0,0-.68.07l-28,16.13-.76-2.52a.91.91,0,0,0-.4-.54h0L129,203.29h0a.86.86,0,0,0-.89,0l-12,6.93a2.17,2.17,0,0,0-1,1.7V252a.71.71,0,0,0,.26.62h0l1.82,1h0a.7.7,0,0,0,.67-.08l43.86-25.32a2.16,2.16,0,0,0,1-1.69Z" style="fill: rgb(230, 230, 230); transform-origin: 138.924px 222.444px;" id="els8mlyiwae8h" class="animable"></path><path d="M130.79,204.34a.87.87,0,0,0-.88,0l-12,6.93a2.11,2.11,0,0,0-.69.73L115.37,211a2.11,2.11,0,0,1,.69-.73l12-6.93a.86.86,0,0,1,.89,0h0Z" style="fill: rgb(240, 240, 240); transform-origin: 123.08px 207.608px;" id="elof2dkwtc2xe" class="animable"></path><path d="M162.4,192.24a.74.74,0,0,0-.64.1l-28.27,16.31a.86.86,0,0,1-1.31-.52l-.21-.72,28-16.13a.85.85,0,0,1,.43-.13.51.51,0,0,1,.25.06h0Z" style="fill: rgb(240, 240, 240); transform-origin: 147.185px 199.971px;" id="ely0qicj1sw" class="animable"></path><g id="eld8w5afr9bgf"><path d="M117.06,253.56a.48.48,0,0,0,.09.11l-1.77-1h0a.53.53,0,0,1-.17-.19s0-.07,0-.11a1,1,0,0,1,0-.32V211.83c0-.08,0-.16,0-.25l0-.12a2.75,2.75,0,0,1,.15-.36l.06-.12,1.84,1.06a2,2,0,0,0-.29,1v40.06c0,.06,0,.12,0,.17s0,.07,0,.1l0,0s0,0,0,.06A.41.41,0,0,0,117.06,253.56Z" style="opacity: 0.15; transform-origin: 116.229px 232.325px;" class="animable"></path></g></g><path d="M166,219.09a1,1,0,0,1-.5-.14,1,1,0,0,1-.5-.87V177.9a2.38,2.38,0,0,1,.34-1.17,2.58,2.58,0,0,1,.84-.89l12-6.93a1.25,1.25,0,0,1,1.29,0,1.3,1.3,0,0,1,.63.8l1,3.23a.49.49,0,0,0,.27.33.47.47,0,0,0,.41,0L210,156.87a1.14,1.14,0,0,1,1-.12l.13.07a1.12,1.12,0,0,1,.46,1v33.72a2.58,2.58,0,0,1-1.19,2L166.5,219A1,1,0,0,1,166,219.09Zm12.9-49.53a.56.56,0,0,0-.27.08l-12,6.94a1.66,1.66,0,0,0-.54.57,1.6,1.6,0,0,0-.22.75v40.18a.16.16,0,0,0,.07.14.15.15,0,0,0,.16,0l44-25.38a1.73,1.73,0,0,0,.76-1.32V157.8a.39.39,0,0,0-.06-.26l-.05,0a.89.89,0,0,0-.23.09l-28.27,16.31a1.28,1.28,0,0,1-1.92-.76l-1-3.24a.5.5,0,0,0-.22-.3A.45.45,0,0,0,178.89,169.56Z" style="fill: rgb(224, 224, 224); transform-origin: 188.297px 187.889px;" id="el0cafhzy1dp1c" class="animable"></path><g id="freepik--folder--inject-77" class="animable" style="transform-origin: 193.446px 190.916px;"><path d="M217.28,161.41a.69.69,0,0,0-.27-.62h0l-1.82-1.05h0a.68.68,0,0,0-.69.07l-28,16.12-.75-2.51a.92.92,0,0,0-.41-.54h0l-1.84-1.06h0a.87.87,0,0,0-.89,0l-12,6.93a2.16,2.16,0,0,0-1,1.69v40.07a.72.72,0,0,0,.27.62h0l1.82,1h0a.68.68,0,0,0,.66-.08l43.87-25.32a2.18,2.18,0,0,0,1-1.69Z" style="fill: rgb(230, 230, 230); transform-origin: 193.446px 190.929px;" id="elxo32a1u3x6" class="animable"></path><path d="M185.33,172.85a.85.85,0,0,0-.87,0l-12,6.93a2.21,2.21,0,0,0-.69.73l-1.83-1.06a2,2,0,0,1,.69-.73l12-6.93a.91.91,0,0,1,.9,0h0Z" style="fill: rgb(240, 240, 240); transform-origin: 177.635px 176.09px;" id="el7ppaap7mxdh" class="animable"></path><path d="M216.94,160.75a.74.74,0,0,0-.64.1L188,177.15a.84.84,0,0,1-1.3-.51l-.22-.73,28-16.12a.9.9,0,0,1,.44-.14.52.52,0,0,1,.25.07h0Z" style="fill: rgb(240, 240, 240); transform-origin: 201.71px 168.475px;" id="ellzdy1q84j4n" class="animable"></path><g id="elh9kt52r7llf"><path d="M171.6,222.07l.1.11-1.78-1h0a.63.63,0,0,1-.17-.19.25.25,0,0,1,0-.11.8.8,0,0,1-.05-.32V180.45a.41.41,0,0,1,0-.11,1.87,1.87,0,0,1,0-.25l0-.12a2.75,2.75,0,0,1,.15-.36l.06-.12,1.83,1.06a2,2,0,0,0-.28,1v40.07a.91.91,0,0,0,0,.17s0,.06,0,.1v.05l0,.06A.39.39,0,0,0,171.6,222.07Z" style="opacity: 0.15; transform-origin: 170.718px 200.835px;" class="animable"></path></g></g></g><g id="freepik--folders--inject-77" class="animable" style="transform-origin: 136.592px 156.646px;"><path d="M56.9,217.79a1,1,0,0,1-.5-.13,1,1,0,0,1-.5-.87V176.6a2.41,2.41,0,0,1,.34-1.17,2.46,2.46,0,0,1,.84-.88l12-6.94a1.27,1.27,0,0,1,1.29,0,1.4,1.4,0,0,1,.63.8l1,3.24a.48.48,0,0,0,.27.33.48.48,0,0,0,.41-.06l28.27-16.31a1.1,1.1,0,0,1,1-.11l.12.07a1.09,1.09,0,0,1,.47,1v33.72a2.59,2.59,0,0,1-1.19,2.06l-44,25.38A1,1,0,0,1,56.9,217.79Zm12.89-49.53a.54.54,0,0,0-.27.09l-12,6.93a1.76,1.76,0,0,0-.77,1.32v40.19a.13.13,0,0,0,.08.13.15.15,0,0,0,.16,0l44-25.38a1.75,1.75,0,0,0,.76-1.32V156.5a.4.4,0,0,0-.06-.25l-.06,0a.56.56,0,0,0-.23.09L73.1,172.61a1.27,1.27,0,0,1-1.92-.76l-1-3.24a.48.48,0,0,0-.22-.29A.36.36,0,0,0,69.79,168.26Z" style="fill: rgb(224, 224, 224); transform-origin: 79.2223px 186.611px;" id="elts4l789m74h" class="animable"></path><g id="freepik--folder--inject-77" class="animable" style="transform-origin: 84.3558px 189.623px;"><path d="M108.19,160.11a.66.66,0,0,0-.27-.61h0l-1.82-1.06h0a.71.71,0,0,0-.69.07l-28,16.13-.75-2.51a.93.93,0,0,0-.41-.54h0l-1.83-1.06h0a.88.88,0,0,0-.9,0l-12,6.94a2.16,2.16,0,0,0-1,1.69v40.07a.69.69,0,0,0,.27.61h0l1.82,1h0a.71.71,0,0,0,.66-.08l43.86-25.33a2.16,2.16,0,0,0,1-1.69Z" style="fill: rgb(230, 230, 230); transform-origin: 84.3558px 189.634px;" id="elydgdan71bw9" class="animable"></path><path d="M76.24,171.55a.9.9,0,0,0-.88,0l-12,6.94a2,2,0,0,0-.69.73l-1.83-1.06a1.87,1.87,0,0,1,.69-.73l12-6.94a.88.88,0,0,1,.9,0h0Z" style="fill: rgb(240, 240, 240); transform-origin: 68.54px 174.793px;" id="eloxowp6snm8i" class="animable"></path><path d="M107.85,159.46a.7.7,0,0,0-.64.09L78.94,175.86a.85.85,0,0,1-1.3-.52l-.22-.72,28-16.13a.85.85,0,0,1,.43-.13.49.49,0,0,1,.25.06h0Z" style="fill: rgb(240, 240, 240); transform-origin: 92.635px 167.181px;" id="eltf3s8mmseae" class="animable"></path><g id="eln5k3zn3c2zk"><path d="M62.51,220.78l.1.1-1.78-1h0v0a.45.45,0,0,1-.17-.19.37.37,0,0,1,0-.11,1,1,0,0,1-.05-.32V179c0-.08,0-.16,0-.24s0-.08,0-.13.09-.24.14-.36l.07-.11,1.83,1.06a1.93,1.93,0,0,0-.28,1v40.06a1.09,1.09,0,0,0,0,.18.29.29,0,0,0,0,.09s0,0,0,0a.33.33,0,0,0,0,.06A.34.34,0,0,0,62.51,220.78Z" style="opacity: 0.15; transform-origin: 61.63px 199.52px;" class="animable"></path></g></g><path d="M111.45,186.3a1,1,0,0,1-1-1V145.11a2.54,2.54,0,0,1,1.19-2.05l12-6.94a1.29,1.29,0,0,1,1.3,0,1.31,1.31,0,0,1,.62.8l1,3.24a.47.47,0,0,0,.27.32.5.5,0,0,0,.42-.05l28.27-16.31a1.12,1.12,0,0,1,1-.12l.13.07a1.11,1.11,0,0,1,.46,1v33.72a2.61,2.61,0,0,1-1.18,2.06l-44,25.38A1,1,0,0,1,111.45,186.3Zm12.89-49.53a.56.56,0,0,0-.27.08l-12,6.94a1.75,1.75,0,0,0-.76,1.32v40.18a.16.16,0,0,0,.24.14l44-25.38a1.73,1.73,0,0,0,.77-1.32V125a.39.39,0,0,0-.07-.26l-.05,0a.61.61,0,0,0-.23.08l-28.27,16.31a1.28,1.28,0,0,1-1.92-.76l-1-3.24a.49.49,0,0,0-.21-.3A.49.49,0,0,0,124.34,136.77Z" style="fill: rgb(224, 224, 224); transform-origin: 133.782px 155.119px;" id="el9pf1lb97tzo" class="animable"></path><g id="freepik--folder--inject-77" class="animable" style="transform-origin: 138.933px 158.15px;"><path d="M162.74,128.62a.72.72,0,0,0-.27-.62h0l0,0-1.82-1h0a.66.66,0,0,0-.68.07l-28,16.13-.76-2.52a.91.91,0,0,0-.4-.54h0L129,139h0a.86.86,0,0,0-.89,0l-12,6.93a2.17,2.17,0,0,0-1,1.7v40.06a.71.71,0,0,0,.26.62h0l1.82,1h0a.7.7,0,0,0,.67-.08L161.76,164a2.16,2.16,0,0,0,1-1.69Z" style="fill: rgb(230, 230, 230); transform-origin: 138.933px 158.149px;" id="elzlekad2o9fo" class="animable"></path><path d="M130.79,140.06a.87.87,0,0,0-.88,0l-12,6.93a2.11,2.11,0,0,0-.69.73l-1.84-1.06a2.11,2.11,0,0,1,.69-.73l12-6.93a.86.86,0,0,1,.89,0h0Z" style="fill: rgb(240, 240, 240); transform-origin: 123.085px 143.298px;" id="elhfmmz4sup2b" class="animable"></path><path d="M162.4,128a.74.74,0,0,0-.64.1l-28.27,16.31a.86.86,0,0,1-1.31-.52l-.21-.72,28-16.13a.85.85,0,0,1,.43-.13.51.51,0,0,1,.25.06h0Z" style="fill: rgb(240, 240, 240); transform-origin: 147.185px 135.731px;" id="el5k5jp3chzo5" class="animable"></path><g id="elh3wopwrmkc"><path d="M117.06,189.28a.48.48,0,0,0,.09.11l-1.77-1h0a.53.53,0,0,1-.17-.19s0-.07,0-.11a1,1,0,0,1,0-.32V147.55c0-.08,0-.16,0-.25l0-.12a2.75,2.75,0,0,1,.15-.36l.06-.12,1.84,1.06a2,2,0,0,0-.29,1v40.06c0,.06,0,.12,0,.17s0,.07,0,.1l0,.05s0,0,0,.06A.41.41,0,0,0,117.06,189.28Z" style="opacity: 0.15; transform-origin: 116.229px 168.045px;" class="animable"></path></g></g><path d="M166,154.81a1,1,0,0,1-.5-.14,1,1,0,0,1-.5-.87V113.62a2.38,2.38,0,0,1,.34-1.17,2.58,2.58,0,0,1,.84-.89l12-6.93a1.25,1.25,0,0,1,1.29,0,1.3,1.3,0,0,1,.63.8l1,3.23a.49.49,0,0,0,.27.33.47.47,0,0,0,.41,0L210,92.59a1.14,1.14,0,0,1,1-.12l.13.07a1.12,1.12,0,0,1,.46,1v33.72a2.58,2.58,0,0,1-1.19,2l-44,25.38A1,1,0,0,1,166,154.81Zm12.9-49.53a.56.56,0,0,0-.27.08l-12,6.94a1.66,1.66,0,0,0-.54.57,1.6,1.6,0,0,0-.22.75V153.8a.16.16,0,0,0,.07.14.15.15,0,0,0,.16,0l44-25.38a1.73,1.73,0,0,0,.76-1.32V93.52a.41.41,0,0,0-.06-.26l-.05,0a.43.43,0,0,0-.23.08l-28.27,16.31a1.28,1.28,0,0,1-1.92-.76l-1-3.24a.5.5,0,0,0-.22-.3A.45.45,0,0,0,178.89,105.28Z" style="fill: rgb(224, 224, 224); transform-origin: 188.297px 123.608px;" id="elx3widoranga" class="animable"></path><g id="freepik--folder--inject-77" class="animable" style="transform-origin: 193.446px 126.661px;"><path d="M217.28,97.13a.69.69,0,0,0-.27-.62h0l-1.82-1h0a.68.68,0,0,0-.69.07l-28,16.12-.75-2.51a.92.92,0,0,0-.41-.54h0l-1.84-1.06h0a.87.87,0,0,0-.89,0l-12,6.93a2.16,2.16,0,0,0-1,1.69v40.07a.72.72,0,0,0,.27.62h0l1.82,1h0a.68.68,0,0,0,.66-.08l43.87-25.32a2.18,2.18,0,0,0,1-1.69Z" style="fill: rgb(230, 230, 230); transform-origin: 193.446px 126.699px;" id="el844uyewr4kh" class="animable"></path><path d="M185.33,108.57a.85.85,0,0,0-.87,0l-12,6.93a2.21,2.21,0,0,0-.69.73l-1.83-1.06a2,2,0,0,1,.69-.73l12-6.93a.91.91,0,0,1,.9,0h0Z" style="fill: rgb(240, 240, 240); transform-origin: 177.635px 111.81px;" id="el5ignw2ptysl" class="animable"></path><path d="M216.94,96.47a.74.74,0,0,0-.64.1L188,112.87a.84.84,0,0,1-1.3-.51l-.22-.73,28-16.12a.9.9,0,0,1,.44-.14.52.52,0,0,1,.25.07h0Z" style="fill: rgb(240, 240, 240); transform-origin: 201.71px 104.195px;" id="eldbds6eah05p" class="animable"></path><g id="elrok81tiwb1r"><path d="M171.6,157.79l.1.11-1.78-1h0a.63.63,0,0,1-.17-.19.25.25,0,0,1,0-.11.8.8,0,0,1-.05-.32V116.17a.41.41,0,0,1,0-.11,1.87,1.87,0,0,1,0-.25l0-.12a2.75,2.75,0,0,1,.15-.36l.06-.12,1.83,1.06a2,2,0,0,0-.28,1V157.3a.91.91,0,0,0,0,.17s0,.06,0,.1a.43.43,0,0,1,0,.05l0,.06A.39.39,0,0,0,171.6,157.79Z" style="opacity: 0.15; transform-origin: 170.718px 136.555px;" class="animable"></path></g></g></g></g><g id="freepik--folder--inject-77" class="animable" style="transform-origin: 221.697px 269.077px;"><g id="freepik--folder--inject-77" class="animable" style="transform-origin: 221.697px 269.077px;"><polygon points="135.89 410.88 124.36 404.23 308.85 297.71 320.38 304.37 135.89 410.88" style="fill: rgb(59, 130, 246); transform-origin: 222.37px 354.295px;" id="ele7j5fwl7mah" class="animable"></polygon><g id="el9h5zhrwt23j"><polygon points="135.89 410.88 124.36 404.23 308.85 297.71 320.38 304.37 135.89 410.88" style="opacity: 0.35; transform-origin: 222.37px 354.295px;" class="animable"></polygon></g><path d="M308.53,293a8.28,8.28,0,0,1-3.77,7.08L140.9,394.67l-4.14,2.39-11.28,6.51a9.42,9.42,0,0,1-1.45-4.06l-11.18-165.7a11.72,11.72,0,0,1,0-1.45c0-.13,0-.27,0-.39l0-.35c0-.11,0-.22,0-.31a3.91,3.91,0,0,1,.07-.39,7.54,7.54,0,0,1,.17-.75l.06-.22c0-.09.05-.18.08-.26s.13-.33.15-.4a2.71,2.71,0,0,1,1-1.31c1.07-.62,2.21-3.21,2.57-5.8l1.38-9.93a10.93,10.93,0,0,1,4.75-7.05l53.31-30.77a3.72,3.72,0,0,1,5.61,2.11l2,5.89a3.73,3.73,0,0,0,5.62,2.12l103.27-59.61c2.26-1.32,4.24-.26,4.42,2.34Z" style="fill: rgb(59, 130, 246); transform-origin: 210.679px 263.971px;" id="elljso5ifqsu" class="animable"></path><g id="elkx7bfu9zk8"><path d="M308.53,293a8.28,8.28,0,0,1-3.77,7.08L140.9,394.67l-4.14,2.39-11.28,6.51a9.42,9.42,0,0,1-1.45-4.06l-11.18-165.7a11.72,11.72,0,0,1,0-1.45c0-.13,0-.27,0-.39l0-.35c0-.11,0-.22,0-.31a3.91,3.91,0,0,1,.07-.39,7.54,7.54,0,0,1,.17-.75l.06-.22c0-.09.05-.18.08-.26s.13-.33.15-.4a2.71,2.71,0,0,1,1-1.31c1.07-.62,2.21-3.21,2.57-5.8l1.38-9.93a10.93,10.93,0,0,1,4.75-7.05l53.31-30.77a3.72,3.72,0,0,1,5.61,2.11l2,5.89a3.73,3.73,0,0,0,5.62,2.12l103.27-59.61c2.26-1.32,4.24-.26,4.42,2.34Z" style="opacity: 0.1; transform-origin: 210.679px 263.971px;" class="animable"></path></g><path d="M295.87,124.62a2.79,2.79,0,0,0-2.41,0l-.27.12-.26.15L189.66,184.55a3.94,3.94,0,0,1-.87.39l-.37.11-.12,0a3.65,3.65,0,0,1-4.06-2.2,4.43,4.43,0,0,0,1.57-.53l103.28-59.63a3,3,0,0,1,3-.25C292.53,122.68,295.32,124.3,295.87,124.62Z" style="fill: rgb(59, 130, 246); transform-origin: 240.055px 153.633px;" id="ell7afn69ki0p" class="animable"></path><g id="elqa9hiw1axkj"><path d="M295.87,124.62a2.79,2.79,0,0,0-2.41,0l-.27.12-.26.15L189.66,184.55a3.94,3.94,0,0,1-.87.39l-.37.11-.12,0a3.65,3.65,0,0,1-4.06-2.2,4.43,4.43,0,0,0,1.57-.53l103.28-59.63a3,3,0,0,1,3-.25C292.53,122.68,295.32,124.3,295.87,124.62Z" style="fill: rgb(255, 255, 255); opacity: 0.3; transform-origin: 240.055px 153.633px;" class="animable"></path></g><path d="M176.45,172.1a3.76,3.76,0,0,0-3.84.11L119.3,203a10.1,10.1,0,0,0-3.31,3.43l3.84,2.22a10.31,10.31,0,0,1,3.32-3.43l53.31-30.77a.2.2,0,0,1,.08,0,3.74,3.74,0,0,1,3.78-.07C180.1,174.19,177.06,172.46,176.45,172.1Z" style="fill: rgb(59, 130, 246); transform-origin: 148.155px 190.138px;" id="elsee68oyoxg" class="animable"></path><g id="elw9oi6g73zc"><path d="M176.45,172.1a3.76,3.76,0,0,0-3.84.11L119.3,203a10.1,10.1,0,0,0-3.31,3.43l3.84,2.22a10.31,10.31,0,0,1,3.32-3.43l53.31-30.77a.2.2,0,0,1,.08,0,3.74,3.74,0,0,1,3.78-.07C180.1,174.19,177.06,172.46,176.45,172.1Z" style="fill: rgb(255, 255, 255); opacity: 0.3; transform-origin: 148.155px 190.138px;" class="animable"></path></g><path d="M114.56,210,113.18,220c-.36,2.59-1.51,5.19-2.57,5.79a2.73,2.73,0,0,0-1,1.32l3.84,2.22s.14-.28.18-.38l.12-.2a1.94,1.94,0,0,1,.68-.73c1.07-.62,2.21-3.21,2.57-5.8l1.38-9.93a9.84,9.84,0,0,1,1.43-3.62L116,206.41A9.72,9.72,0,0,0,114.56,210Z" style="fill: rgb(59, 130, 246); transform-origin: 114.71px 217.87px;" id="el92cfww8wl8f" class="animable"></path><g id="elchqv7e094no"><path d="M114.56,210,113.18,220c-.36,2.59-1.51,5.19-2.57,5.79a2.73,2.73,0,0,0-1,1.32l3.84,2.22s.14-.28.18-.38l.12-.2a1.94,1.94,0,0,1,.68-.73c1.07-.62,2.21-3.21,2.57-5.8l1.38-9.93a9.84,9.84,0,0,1,1.43-3.62L116,206.41A9.72,9.72,0,0,0,114.56,210Z" style="opacity: 0.15; transform-origin: 114.71px 217.87px;" class="animable"></path></g><path d="M309.49,138a3.06,3.06,0,0,0-1.37-2.61l-3.84-2.22a3,3,0,0,0-3,.25L124.93,235.24a8.33,8.33,0,0,0-3.78,7.09l10.32,152.88a3.08,3.08,0,0,0,1.35,2.6l3.86,2.23a3,3,0,0,0,3-.25L316,298a8.3,8.3,0,0,0,3.78-7.09Z" style="fill: rgb(255, 255, 255); transform-origin: 220.465px 266.605px;" id="elu1rjluoihyi" class="animable"></path><path d="M136.68,400l-3.86-2.23a3.1,3.1,0,0,1-1.35-2.6L121.15,242.33a7.4,7.4,0,0,1,.72-3.47l3.83,2.22a7.31,7.31,0,0,0-.7,3.46l10.31,152.89A3.06,3.06,0,0,0,136.68,400Z" style="fill: rgb(224, 224, 224); transform-origin: 128.912px 319.43px;" id="elocphj8blxkp" class="animable"></path><path d="M128.78,237.46,305.07,135.67c2.27-1.3,4.24-.25,4.42,2.36l10.32,152.88A8.3,8.3,0,0,1,316,298L139.73,399.79c-2.26,1.3-4.24.25-4.41-2.36L125,244.54A8.27,8.27,0,0,1,128.78,237.46Z" style="fill: rgb(240, 240, 240); transform-origin: 222.405px 267.73px;" id="el1zmplifprfh" class="animable"></path><path d="M146.05,250.07l-9.86,156.09c-.17,2.61-2.14,3.66-4.4,2.36l-3.34-1.93A9.9,9.9,0,0,1,124,399.5L112.85,233.8a10.43,10.43,0,0,1,.63-4.51l-3.85-2.22a10.46,10.46,0,0,0-.62,4.52L120.5,401.9a10,10,0,0,0,4.42,7.09l10.44,6c2.27,1.3,4.23.25,4.4-2.36L149.9,252.29a7.19,7.19,0,0,1,.35-1.78l-3.84-2.21A7.23,7.23,0,0,0,146.05,250.07Z" style="fill: rgb(59, 130, 246); transform-origin: 129.612px 321.309px;" id="el8okxmsp894u" class="animable"></path><g id="elk21fz2rc098"><path d="M146.05,250.07l-9.86,156.09c-.17,2.61-2.14,3.66-4.4,2.36l-3.34-1.93A9.9,9.9,0,0,1,124,399.5L112.85,233.8a10.43,10.43,0,0,1,.63-4.51l-3.85-2.22a10.46,10.46,0,0,0-.62,4.52L120.5,401.9a10,10,0,0,0,4.42,7.09l10.44,6c2.27,1.3,4.23.25,4.4-2.36L149.9,252.29a7.19,7.19,0,0,1,.35-1.78l-3.84-2.21A7.23,7.23,0,0,0,146.05,250.07Z" style="opacity: 0.25; transform-origin: 129.612px 321.309px;" class="animable"></path></g><path d="M333.24,142.73a2.86,2.86,0,0,0-2.62.38l-.05,0L154.29,245.19a10,10,0,0,0-4,5.33l-3.85-2.22a10.07,10.07,0,0,1,4-5.33L326.77,140.91a2.77,2.77,0,0,1,2.77-.32Z" style="fill: rgb(59, 130, 246); transform-origin: 239.84px 195.439px;" id="elbxi170fbtgd" class="animable"></path><g id="elm8haxsmnq4"><path d="M333.24,142.73a2.86,2.86,0,0,0-2.62.38l-.05,0L154.29,245.19a10,10,0,0,0-4,5.33l-3.85-2.22a10.07,10.07,0,0,1,4-5.33L326.77,140.91a2.77,2.77,0,0,1,2.77-.32Z" style="fill: rgb(255, 255, 255); opacity: 0.3; transform-origin: 239.84px 195.439px;" class="animable"></path></g><path d="M154.29,245.19a9.92,9.92,0,0,0-4.4,7.1L139.75,412.73c-.18,2.37-1.87,3.42-3.9,2.53a8.6,8.6,0,0,0,3.69.74,8.38,8.38,0,0,0,4-.95L319.86,313.23a9.85,9.85,0,0,0,4.39-7.09l10.16-160.66c.16-2.61-1.53-3.67-3.79-2.36Z" style="fill: rgb(59, 130, 246); transform-origin: 235.135px 279.28px;" id="elr1rtll611ti" class="animable"></path></g></g><g id="freepik--Plant--inject-77" class="animable" style="transform-origin: 75.695px 319.956px;"><g id="freepik--Pot--inject-77" class="animable" style="transform-origin: 75.695px 319.956px;"><g id="freepik--pot--inject-77" class="animable" style="transform-origin: 74.3852px 353.905px;"><g id="freepik--pot--inject-77" class="animable" style="transform-origin: 74.3852px 353.905px;"><path d="M57.91,381.29c-8.82-9.1-14-46.12-5.4-53.33H96.26c8.6,7.21,3.42,44.22-5.39,53.32l-.24.25-.3.3c-.25.24-.51.48-.8.71l-.21.17-.66.51c-.38.27-.76.52-1.14.74-7.25,4.23-19,4.23-26.26,0h0a11.29,11.29,0,0,1-1.15-.75c-.22-.15-.42-.31-.62-.47l-.26-.21a10.21,10.21,0,0,1-.77-.69l-.35-.34Z" style="fill: rgb(55, 71, 79); transform-origin: 74.3852px 357.546px;" id="elprw5pk87w9c" class="animable"></path><path d="M92.46,325.05c10,5.83,10,15.28,0,21.11s-26.17,5.82-36.15,0-10-15.28,0-21.11S82.48,319.22,92.46,325.05Z" style="fill: rgb(69, 90, 100); transform-origin: 74.3887px 335.603px;" id="elvi9mwqhp14c" class="animable"></path><path d="M87.66,327.85c7.33,4.28,7.33,11.22,0,15.5s-19.22,4.28-26.55,0-7.33-11.22,0-15.5S80.33,323.57,87.66,327.85Z" style="fill: rgb(38, 50, 56); transform-origin: 74.385px 335.6px;" id="el8439n6pnzcx" class="animable"></path><path d="M61.11,335.21c7.33-4.28,19.22-4.28,26.55,0a12.2,12.2,0,0,1,4.39,4.07,12.12,12.12,0,0,1-4.39,4.07c-7.33,4.28-19.22,4.28-26.55,0a12.28,12.28,0,0,1-4.39-4.07A12.37,12.37,0,0,1,61.11,335.21Z" style="fill: rgb(250, 250, 250); transform-origin: 74.385px 339.28px;" id="eltfitcad2xye" class="animable"></path></g></g><g id="freepik--Plants--inject-77" class="animable" style="transform-origin: 75.695px 297.17px;"><path d="M56.67,268.86l14.57,11.55-14.09-6.5a38.9,38.9,0,0,0,2.45,13.34,86.32,86.32,0,0,1,11,7.78l-10.8-4.27s-.73,7.12,2.23,18c.77,2.85,4,8.27,6,12.33a46.37,46.37,0,0,0,3.14,5.42l.22.33c2.47-1.41,5-2.79,7.69-4.11,1.74-3.65,4-12.67,4.82-20.05,3.11-28.27-18.26-44.47-35.45-49.9A51.16,51.16,0,0,1,56.67,268.86Z" style="fill: rgb(59, 130, 246); transform-origin: 66.3271px 289.81px;" id="el84un8d6dwl5" class="animable"></path><g id="elb1d9di0is2i"><path d="M56.67,268.86l14.57,11.55-14.09-6.5a38.9,38.9,0,0,0,2.45,13.34,86.32,86.32,0,0,1,11,7.78l-10.8-4.27s-.73,7.12,2.23,18c.77,2.85,4,8.27,6,12.33a46.37,46.37,0,0,0,3.14,5.42l.22.33c2.47-1.41,5-2.79,7.69-4.11,1.74-3.65,4-12.67,4.82-20.05,3.11-28.27-18.26-44.47-35.45-49.9A51.16,51.16,0,0,1,56.67,268.86Z" style="fill: rgb(255, 255, 255); opacity: 0.5; transform-origin: 66.3271px 289.81px;" class="animable"></path></g><path d="M68.85,270c3,3,4.71,6.93,6.05,10.86a57.52,57.52,0,0,1,2.58,12.23,52.89,52.89,0,0,1-3.08,24.54h0a.41.41,0,1,0,.76.3h0a53.49,53.49,0,0,0,2.73-24.88,57.59,57.59,0,0,0-2.8-12.25C73.69,276.91,71.87,273,68.85,270Z" style="fill: rgb(250, 250, 250); transform-origin: 73.5849px 294.111px;" id="elkwe7rvqppm" class="animable"></path><path d="M119.72,283.68l0,0a216.88,216.88,0,0,0-15.22,21.39L89.7,307.47l10.9,1.9-5.86,9.27-14.54,3,11.36,1.85s-3.16,11.08-11.29,15.7c-4.48,2.55-6.68,2.94-8,1.66-.94-.89-1.16-6.21-1.94-11s-.85-12.46,3.63-21.76a29.07,29.07,0,0,1,4.65-6.85C89.34,289.31,109.67,283.54,119.72,283.68Z" style="fill: rgb(59, 130, 246); transform-origin: 94.8217px 312.619px;" id="elnm06dgpjc8d" class="animable"></path><g id="elr4a1uflgi4q"><path d="M119.72,283.68l0,0a216.88,216.88,0,0,0-15.22,21.39L89.7,307.47l10.9,1.9-5.86,9.27-14.54,3,11.36,1.85s-3.16,11.08-11.29,15.7c-4.48,2.55-6.68,2.94-8,1.66-.94-.89-1.16-6.21-1.94-11s-.85-12.46,3.63-21.76a29.07,29.07,0,0,1,4.65-6.85C89.34,289.31,109.67,283.54,119.72,283.68Z" style="fill: rgb(255, 255, 255); opacity: 0.25; transform-origin: 94.8217px 312.619px;" class="animable"></path></g><path d="M104.26,288.52a60,60,0,0,0-20.56,14.2,40.25,40.25,0,0,0-7,10.45,38.44,38.44,0,0,0-3.22,12.14,0,0,0,0,0,.09,0,49.32,49.32,0,0,1,3.87-11.8,45.24,45.24,0,0,1,6.79-10.37,61.51,61.51,0,0,1,20.1-14.56,0,0,0,1,0,0-.07Z" style="fill: rgb(250, 250, 250); transform-origin: 88.905px 306.91px;" id="elft9ixf98vxo" class="animable"></path><path d="M31.67,289.79h0a29,29,0,0,1,3.71.17,59.18,59.18,0,0,1,14.23,3.46c1.7.63,3.4,1.35,5.08,2.15q1.26.6,2.49,1.26a41.36,41.36,0,0,1,10.9,8.24,26.13,26.13,0,0,1,3.75,5.28c.13.24.27.48.4.73h0c.32.65.6,1.29.87,1.92a35.54,35.54,0,0,1,3.21,17.5c-.15,4.24-1.6,9.09-2.42,9.89a2.51,2.51,0,0,1-.37.27c-1.21.77-3.13.32-6.73-1.69-7.2-4-10-14.23-10-14.23l10-1.7-12.85-2.57-5.22-8.14,9.61-1.75-13.06-2A193.74,193.74,0,0,0,31.69,289.8Z" style="fill: rgb(59, 130, 246); transform-origin: 54.0355px 315.4px;" id="els5xwegovq5k" class="animable"></path><g id="elbs9v5og61nl"><path d="M31.67,289.79h0a29,29,0,0,1,3.71.17,59.18,59.18,0,0,1,14.23,3.46c1.7.63,3.4,1.35,5.08,2.15q1.26.6,2.49,1.26a41.36,41.36,0,0,1,10.9,8.24,26.13,26.13,0,0,1,3.75,5.28c.13.24.27.48.4.73h0c.32.65.6,1.29.87,1.92a35.54,35.54,0,0,1,3.21,17.5c-.15,4.24-1.6,9.09-2.42,9.89a2.51,2.51,0,0,1-.37.27c-1.21.77-3.13.32-6.73-1.69-7.2-4-10-14.23-10-14.23l10-1.7-12.85-2.57-5.22-8.14,9.61-1.75-13.06-2A193.74,193.74,0,0,0,31.69,289.8Z" style="fill: rgb(255, 255, 255); opacity: 0.65; transform-origin: 54.0355px 315.4px;" class="animable"></path></g><g id="eloie299oarkh"><path d="M35.38,290a59.18,59.18,0,0,1,14.23,3.46c1.7.63,3.4,1.35,5.08,2.15q1.26.6,2.49,1.26a41.36,41.36,0,0,1,10.9,8.24,26.13,26.13,0,0,1,3.75,5.28c.13.24.27.48.4.73h0c.32.65.6,1.29.87,1.92a35.54,35.54,0,0,1,3.21,17.5c-.15,4.24-1.6,9.09-2.42,9.89a2.51,2.51,0,0,1-.37.27,2.08,2.08,0,0,1-.79.29c.88-6.57-2.35-23.25-7.25-30.11-5.09-7.13-17.18-17.48-33.79-21.05h0A28.45,28.45,0,0,1,35.38,290Z" style="fill: rgb(59, 130, 246); opacity: 0.3; transform-origin: 54.0455px 315.407px;" class="animable"></path></g><path d="M72.77,341a56.35,56.35,0,0,0-1-14.54A46.86,46.86,0,0,0,67,312.63a40.69,40.69,0,0,0-9.77-10.9,54.05,54.05,0,0,0-12.52-7.51,0,0,0,0,0-.06,0,0,0,0,0,0,0,.05,72.19,72.19,0,0,1,12,8.07A53.6,53.6,0,0,1,62,307.29,31,31,0,0,1,66.43,313a46.33,46.33,0,0,1,5,13.54A56.17,56.17,0,0,1,72.69,341s0,0,0,0S72.77,341,72.77,341Z" style="fill: rgb(250, 250, 250); transform-origin: 58.7624px 317.61px;" id="el2wtwez5qvj" class="animable"></path></g></g></g><g id="freepik--Character--inject-77" class="animable" style="transform-origin: 399.831px 230.925px;"><g id="freepik--character--inject-77" class="animable" style="transform-origin: 399.831px 230.925px;"><g id="freepik--Top--inject-77" class="animable" style="transform-origin: 402.105px 132.515px;"><path d="M399.89,130.53c-7.17-.57-11.11-2.55-15.41,5.56-4.43,8.36-13.81,28.21-16.86,34.38.68,3.72,9.24,8.41,13.16,7.32s15.81-27.69,15.81-27.69Z" style="fill: rgb(59, 130, 246); transform-origin: 383.755px 153.925px;" id="el6buudsyna0l" class="animable"></path><g id="elvplzakdla8m"><path d="M399.89,130.53c-7.69-.54-11.11-2.55-15.41,5.56-4.43,8.36-13.81,28.21-16.86,34.38.68,3.72,9.24,8.41,13.16,7.32s15.81-27.69,15.81-27.69Z" style="fill: rgb(255, 255, 255); opacity: 0.4; transform-origin: 383.755px 153.932px;" class="animable"></path></g><path d="M427.81,132.31a72.52,72.52,0,0,0-13.7-2.82,62,62,0,0,0-15.39,1,40,40,0,0,0-9.93,9.2c-5.26,6.66-6.9,9.52-6.9,15.39,0,4.21,4,7.93,4,7.93.31,4.14.21,9.13.16,11.75-.07,2.93-.36,4.09,1.28,5.34h0c4.73,5.95,31.53,6.72,40.84-.74a3.3,3.3,0,0,0,1.92-2.87c.42-2.86,1.16-6.35,1.43-7.7,1.26-6.16,3.33-12.63,4.35-17C439,138.5,430.14,133.12,427.81,132.31Z" style="fill: rgb(59, 130, 246); transform-origin: 409.211px 157.069px;" id="elsh7nscehuo" class="animable"></path><g id="elomah7x4e6q"><path d="M427.81,132.31a72.52,72.52,0,0,0-13.7-2.82,62,62,0,0,0-15.39,1,40,40,0,0,0-9.93,9.2c-5.26,6.66-6.9,9.52-6.9,15.39,0,4.21,4,7.93,4,7.93.31,4.14.21,9.13.16,11.75-.07,2.93-.36,4.09,1.28,5.34h0c4.73,5.95,31.53,6.72,40.84-.74a3.3,3.3,0,0,0,1.92-2.87c.42-2.86,1.16-6.35,1.43-7.7,1.26-6.16,3.33-12.63,4.35-17C439,138.5,430.14,133.12,427.81,132.31Z" style="fill: rgb(255, 255, 255); opacity: 0.6; transform-origin: 409.211px 157.069px;" class="animable"></path></g><path d="M403.84,81.14c-1.53.67-2.77,1.67-4.51,1.8a2.3,2.3,0,0,1-1.48-.31,1,1,0,0,1-.27-1.35,5.2,5.2,0,0,0-1.6,1.26,1.82,1.82,0,0,0-.28,1.91,7.38,7.38,0,0,0-5.07,1.14,3,3,0,0,0-1.33,1.53c-.49,1.56,1.05,3.41.15,4.77-.65,1-2.09.93-3.19,1.37A3.51,3.51,0,0,0,384.14,97a9.9,9.9,0,0,0,.85,2.25,10,10,0,0,1,.71,2.61,2.84,2.84,0,0,1-.45,2.2,1.25,1.25,0,0,1-2,0,2.28,2.28,0,0,0,1.94,2.62,2.57,2.57,0,0,0-1.46,1.81,2.94,2.94,0,0,0,.71,2.43,10.34,10.34,0,0,0,.82.69c.78.82-.07,2.14-.19,3a2.74,2.74,0,0,0,.28,1.69,3.37,3.37,0,0,0,1.56,1.22,2.37,2.37,0,0,1,1.11.82,3.16,3.16,0,0,1,.21.68,4.34,4.34,0,0,0,3.71,3.21,12,12,0,0,0,2.38-.15,14.68,14.68,0,0,1,4.39,0,17.84,17.84,0,0,0,4.95.5c1.23-.07,2.46-.22,3.7-.23a23.17,23.17,0,0,1,3.53.44c.78.11,1.33,0,2,.45s1.34,1.54,2.14,2.16a4,4,0,0,0,3.06.76,20.23,20.23,0,0,1,2.9-.74c1.31,0,2.57.87,3.83.54,1.91-.51,2.33-3.36,4.2-4,.86-.29,1.86,0,2.69-.41A2.36,2.36,0,0,0,433,120a4.86,4.86,0,0,0,0-2,2.18,2.18,0,0,0,2.91.21,1,1,0,0,1-1-.91,2.28,2.28,0,0,1,.48-1.4,4.74,4.74,0,0,0,.74-1.31c.43-1.49-1-2.36-1.08-3.68-.07-1.11,1-2,1.35-3a2.84,2.84,0,0,0-.35-2.69c-.6-.83-1.68-1.37-1.87-2.37s.45-1.73.7-2.61a3.38,3.38,0,0,0-.8-3.11,7,7,0,0,0-1.21-.9c-.36-.26-.95-1-1.47-.89a1.65,1.65,0,0,0,1.22-2.26,1.32,1.32,0,0,1-1.57.11,2.49,2.49,0,0,1-1-1.33,17.71,17.71,0,0,0-1.45-3.73,6.18,6.18,0,0,0-3.45-2.58c-3-1-4.82-.61-7.68.27-1-3-3.94-4.34-6.93-5.19A9.92,9.92,0,0,0,403.84,81.14Z" style="fill: rgb(38, 50, 56); transform-origin: 409.906px 103.242px;" id="elqg68dzft2p" class="animable"></path><path d="M419.55,122.65c.54-5.22,2.79-9.28,3.45-15.48s.89-10.86-4.88-15.7-11.9-5-14.64-4.5-5.89,3.1-5.89,3.1Z" style="fill: rgb(59, 130, 246); transform-origin: 410.461px 104.714px;" id="elnj6xi84i25" class="animable"></path><path d="M390.22,106c-7.11-4.52-2.83-17.58,7.37-15.91,0,0,9.05-3.37,16.91,2.56a18,18,0,0,1,4.43,4.78,16.82,16.82,0,0,1,2,12.84l-1.07,4.52-.24,6.89Z" style="fill: rgb(38, 50, 56); transform-origin: 404.062px 105.408px;" id="elrhk7u7m6nco" class="animable"></path><path d="M394.77,93.58a7.16,7.16,0,0,0-3.69,4.76c-.71,2.85-1.12,7.47-.75,14.36.47,8.75,3.79,13.12,8,13.6a31.78,31.78,0,0,0,5.49,0l.09,4.69s-6.24,5.75-4.26,17.3c14.87-10.85,20.09-17.77,20.09-17.77l.06-15.8c.62,1,3.7,2.4,6.11-.69,2.84-3.63,2.21-8-.32-9.55s-5.61-.08-6.77,2.88c-2.72,1.13-18.66-.78-18.41-13.9A6.38,6.38,0,0,0,394.77,93.58Z" style="fill: rgb(255, 168, 167); transform-origin: 408.985px 120.576px;" id="elj2u9jvtmryd" class="animable"></path><path d="M424.43,112.7a1.44,1.44,0,1,1-1.63-1.21A1.45,1.45,0,0,1,424.43,112.7Z" style="fill: rgb(59, 130, 246); transform-origin: 423.006px 112.916px;" id="elcvgr322zgm5" class="animable"></path><path d="M403.85,126.35c8.42-1.82,13.15-5.23,14-8.64,0,0-.53,4.45-2.9,6.42-3.31,2.76-11.06,4.55-11.06,4.55Z" style="fill: rgb(242, 143, 143); transform-origin: 410.85px 123.195px;" id="elubfcs0o90v" class="animable"></path><path d="M399.4,117.54l5.87-2.16a3,3,0,0,1-1.73,4A3.3,3.3,0,0,1,399.4,117.54Z" style="fill: rgb(177, 102, 104); transform-origin: 402.456px 117.474px;" id="el5e97vrwzlda" class="animable"></path><path d="M402.2,119.54a3.25,3.25,0,0,0,1.34-.18,3,3,0,0,0,1.94-2.52A3.61,3.61,0,0,0,402.2,119.54Z" style="fill: rgb(242, 143, 143); transform-origin: 403.84px 118.195px;" id="elb492t4gxzmw" class="animable"></path><ellipse cx="405.95" cy="106.57" rx="1.62" ry="1.61" style="fill: rgb(38, 50, 56); transform-origin: 405.95px 106.57px;" id="el5mz1xypnoq5" class="animable"></ellipse><ellipse cx="394.66" cy="106.5" rx="1.62" ry="1.61" style="fill: rgb(38, 50, 56); transform-origin: 394.66px 106.5px;" id="elba6xsbco2ga" class="animable"></ellipse><polygon points="401.83 103.71 400.98 114.33 395.6 112.43 401.83 103.71" style="fill: rgb(242, 143, 143); transform-origin: 398.715px 109.02px;" id="elo36rrb4lrp" class="animable"></polygon><path d="M392,103.84l3.71-1.28a1.89,1.89,0,0,0-2.44-1.24A2,2,0,0,0,392,103.84Z" style="fill: rgb(38, 50, 56); transform-origin: 393.805px 102.526px;" id="elbtlq9518hms" class="animable"></path><path d="M408.4,104l-3.65-1.57a1.91,1.91,0,0,1,2.56-1.07A2.05,2.05,0,0,1,408.4,104Z" style="fill: rgb(38, 50, 56); transform-origin: 406.648px 102.598px;" id="elex4untmzcqq" class="animable"></path></g><g id="freepik--Bottom--inject-77" class="animable" style="transform-origin: 405.899px 280.479px;"><path d="M441.7,339.4c.34,2.1,1,4.55,1.54,8.85s-.41,4.46,2.18,15.27c1.55,6.49,1.19,9.05-2.87,14.41-4.34,5.73-8.72,4.46-11.47-2.06-2.34-5.58-2.15-8.14-2-13.86s.09-7.39-.08-11.93c-.15-4,.24-6.73.05-9.8Z" style="fill: rgb(55, 71, 79); transform-origin: 437.617px 360.489px;" id="el2yq8n4gosev" class="animable"></path><path d="M442.68,355.1c-.68-5.56-.75-11.31-1-15.06-.47-8.4,1.58-25,.64-37.6l-21.23-2.6c.61,4.94,6,27.32,7.89,40.79,0,0,.47,18.25,1.48,26.3a1.54,1.54,0,0,0,2.13,1.24,14,14,0,0,1,9.65-.42,1.54,1.54,0,0,0,2.08-1.43C444.37,363.35,443.19,359.27,442.68,355.1Z" style="fill: rgb(255, 168, 167); transform-origin: 432.706px 334.066px;" id="elqug8n24oanm" class="animable"></path><path d="M380.83,298.51c.08,17.48-.1,32.95-.72,37.48s-.88,6.07-2,9.24-3.11,7.39-4.85,9.44c0,0-5,5.32-3.88,5.87s11.57,1.66,16.25.24,5.18-5.38,6.78-12.63,3-17.85,3-17.85a5.31,5.31,0,0,1-.48-1.23c-.62-2.09,1.28-7.52,1.77-12.79Z" style="fill: rgb(255, 168, 167); transform-origin: 382.958px 329.992px;" id="elluqemmr1rxg" class="animable"></path><path d="M400,341.13c-.31,1.69-1.77,3.61-2.42,6.25a47.2,47.2,0,0,0-1.36,9.16l-.24,4.32-1.17-.07s.3-5.46.43-7.85,0-4.16-1.14-4.48C394.09,348.46,394.32,340.82,400,341.13Z" style="fill: rgb(38, 50, 56); transform-origin: 397.05px 350.99px;" id="elsfelj0fg7" class="animable"></path><path d="M395.15,329.33c.76,2,3.3,4.81,4.39,6.72a7.29,7.29,0,0,1,.9,3.28,3.43,3.43,0,0,1-1,2.57,40.73,40.73,0,0,0-3.64,4c-1.43,1.92-4.11,6.4-4.86,9.57s-1.17,6-3.89,7.53c-2.12,1.22-10.82,2.93-15.23,3.21-6,.38-7.56-2.51-5.31-4.82s6.06-6.26,6.75-6.75a10.94,10.94,0,0,1,5.59.78c3.36,1.45,4.44,3.4,8,1.64,3.2-1.6,4.48-7.51,4.2-16C390.68,331.4,395.15,329.33,395.15,329.33Z" style="fill: rgb(55, 71, 79); transform-origin: 382.986px 347.787px;" id="elh2okbvpy65" class="animable"></path><path d="M428.19,179.38c.39,2.2.83,4.25,1.62,5.35,4.78,6.72,9.66,14.85,10.47,27.32a549.69,549.69,0,0,1,.27,59.13c.21,2.66,2.22,9.11,2.5,24.28.23,12.09-.58,30.87-.58,30.87s-8.68,4.2-16.21,1.3c-3-11.54-7.86-39.28-10.78-52.49-3.07-13.92-6.2-30.52-6.2-30.52l-5.21,24.29a70.47,70.47,0,0,1-.2,15.71c-1,8.07-7.53,36.5-7.53,36.5s-9.62,2.93-16.09-1.6c0,0-.56-40.26-.56-49.14s1.72-61.66,7.31-84.86a50.33,50.33,0,0,0,.35-5.4C393.69,185.41,419.69,185,428.19,179.38Z" style="fill: rgb(55, 71, 79); transform-origin: 411.391px 254.015px;" id="elpt7nuz8rp6k" class="animable"></path><path d="M442.64,322.15c-3.3,3-13.39,3.75-17.34,1.63l1.2,6.28s2.6,1.78,8.34,1.29,7.58-2.77,7.58-2.77Z" style="fill: rgb(69, 90, 100); transform-origin: 433.97px 326.793px;" id="ellseunw9ljum" class="animable"></path><path d="M397.31,317.14c-3.42,1.13-13.58.53-17.3-1.78l.15,5.39s2.1,2,7.82,2.63,8.23-1,8.23-1Z" style="fill: rgb(69, 90, 100); transform-origin: 388.66px 319.442px;" id="elgfzj6zq27er" class="animable"></path><path d="M409.28,244.62l-3.74-29.77a18.79,18.79,0,0,1-15-7.25s-.25,7.45,12,10.87L407,245.91l-2.9,23Z" style="fill: rgb(38, 50, 56); transform-origin: 399.91px 238.255px;" id="elak26oa4fzfe" class="animable"></path><path d="M387.07,185.09s6.16,4.69,20.7,4.08,21.6-5.19,21.5-5.44h0a20.94,20.94,0,0,1-1-3.79c0-.22-.08-.41-.1-.55-8.5,5.66-34.5,6-40.84.74,0,0-.07,3.48-.28,5Z" style="fill: rgb(38, 50, 56); transform-origin: 408.161px 184.307px;" id="el21z1yunkc88" class="animable"></path><path d="M418.38,184.78c-1.67,3.48-4.16,10.76-4.35,15.77a17.35,17.35,0,0,0,7.49,1.67s1-8.77-.6-16.26Z" style="fill: rgb(38, 50, 56); transform-origin: 417.929px 193.5px;" id="el0mxjyyrzx0g" class="animable"></path><path d="M422.63,182.87c2.58,2.87,7,9.17,8.58,13.92a17.2,17.2,0,0,1-6.72,3.7s-3.42-8.13-4-15.77Z" style="fill: rgb(38, 50, 56); transform-origin: 425.85px 191.68px;" id="elytsgp6p8zh" class="animable"></path></g><g id="freepik--Arms--inject-77" class="animable" style="transform-origin: 399.831px 174.935px;"><path d="M400.52,187.93c.35-.46,1.43.5,3.72,1,2.92.65,4.06.55,7.16,1.36a15.63,15.63,0,0,0,4.32.8l-11.3,2.31a12.3,12.3,0,0,1-3.17-1.93A2.67,2.67,0,0,1,400.52,187.93Z" style="fill: rgb(255, 168, 167); transform-origin: 407.93px 190.604px;" id="elomekyebkpo" class="animable"></path><path d="M350.94,157.2c-.79-.34-1.36,0-1.25.72L355,195.66l53,22.49-5.41-37.8a2.86,2.86,0,0,0-1.63-1.94l-30.27-12.85-2.15-3.83a1.33,1.33,0,0,0-.66-.57l-12.55-5.34a1.32,1.32,0,0,0-1.73.54l-.62,1.69Z" style="fill: rgb(59, 130, 246); transform-origin: 378.838px 186.918px;" id="elas2no9sbzm" class="animable"></path><g id="el5lde3rmvjf4"><path d="M350.94,157.2c-.79-.34-1.36,0-1.25.72L355,195.66l53,22.49-5.41-37.8a2.86,2.86,0,0,0-1.63-1.94l-30.27-12.85-2.15-3.83a1.33,1.33,0,0,0-.66-.57l-12.55-5.34a1.32,1.32,0,0,0-1.73.54l-.62,1.69Z" style="opacity: 0.15; transform-origin: 378.838px 186.918px;" class="animable"></path></g><polygon points="354.97 195.66 406.17 217.39 400.82 179.91 347.96 157.48 354.97 195.66" style="fill: rgb(240, 240, 240); transform-origin: 377.065px 187.435px;" id="ele65urj0as9n" class="animable"></polygon><path d="M408,218.15l-8.86-35.74a3.3,3.3,0,0,0-1.77-1.93l-50-21.21c-.8-.34-1.3,0-1.12.71L355,195.66Z" style="fill: rgb(59, 130, 246); transform-origin: 377.107px 188.644px;" id="elxtwkz3wibt" class="animable"></path><path d="M349.3,172.49c-2.28,2.76-2.3,4.94-1.46,8.58s3.2,8,4.53,9.14,3.82,2.85,6.62,2.28,2.88-4.14,4.14-5.64c2-2.39-.7-4.16-3.3-4.51-6.14-.85-9.09-3.94-9.09-3.94Z" style="fill: rgb(255, 168, 167); transform-origin: 355.578px 182.547px;" id="elb8t0hkbzxa6" class="animable"></path><path d="M396.43,193.49a42.36,42.36,0,0,0,8-.08l11.3-2.31c5,.58,19.4-9.49,19.4-9.49a71.27,71.27,0,0,0-5.51-23.24c-4.73-6.63-5.06-18-1.8-26.06,9.39-.47,12.85,4.22,15.89,13.62,2.39,7.39,7,27.69,9,35.41,1.13,4.42,1.57,8.33-3.25,11.09a138.22,138.22,0,0,1-24.88,9.92c-5.09,1.44-7.91,2.86-13.28,3.65a46.53,46.53,0,0,1-8.74.65,12.28,12.28,0,0,1-3.1-.33,18.79,18.79,0,0,1-4.34-2.77,3,3,0,0,1-1-1.05c-.31-.62-.18-1.41-.57-2s-1-.69-1.34-1.13c-.67-.78-.59-2-1.11-2.88s-1.37-1.62-.89-2.57C390.9,192.41,392.82,193.19,396.43,193.49Z" style="fill: rgb(255, 168, 167); transform-origin: 421.759px 169.469px;" id="eln5d266sfowe" class="animable"></path><path d="M427.38,132.18c4.8,0,9-2.07,12.21,2.58,3.05,4.45,4.84,11.85,8.18,24.37a159.55,159.55,0,0,1,4.2,19.6s-10.75-1.07-16.85,2.88l-5.85-20.16s-5-8.58-4.71-16.28A37,37,0,0,1,427.38,132.18Z" style="fill: rgb(59, 130, 246); transform-origin: 438.259px 156.665px;" id="el43qj56b6uub" class="animable"></path><g id="el7rtpqnm700w"><path d="M427.38,132.18c4.8,0,9-2.07,12.21,2.58,3.05,4.45,4.84,11.85,8.18,24.37a159.55,159.55,0,0,1,4.2,19.6s-10.75-1.07-16.85,2.88l-5.85-20.16s-5-8.58-4.71-16.28A37,37,0,0,1,427.38,132.18Z" style="fill: rgb(255, 255, 255); opacity: 0.4; transform-origin: 438.259px 156.665px;" class="animable"></path></g><path d="M435.12,181.61s6-2,11.21-1.22,6.67,2.27,6.67,2.27.46-4.26-1.15-6.08a21.73,21.73,0,0,0-17.31,3Z" style="fill: rgb(59, 130, 246); transform-origin: 443.8px 179.297px;" id="elu2u6exzihhl" class="animable"></path><g id="elbd18u4lneq"><path d="M435.12,181.61s6-2,11.21-1.22,6.67,2.27,6.67,2.27.46-4.26-1.15-6.08a21.73,21.73,0,0,0-17.31,3Z" style="opacity: 0.3; transform-origin: 443.8px 179.297px;" class="animable"></path></g></g></g></g><g id="freepik--Cursor--inject-77" class="animable animator-hidden" style="transform-origin: 272.804px 412.521px;"><g id="freepik--Selection--inject-77"><path d="M221.38,438.14l-2.43-1.4a.47.47,0,1,0-.46.81l2.42,1.4a.49.49,0,0,0,.23.06.48.48,0,0,0,.41-.23A.47.47,0,0,0,221.38,438.14Zm6.46,3.73-2.42-1.4a.47.47,0,1,0-.47.81l2.43,1.4a.46.46,0,0,0,.23.06.46.46,0,0,0,.23-.87Zm-1.67-41a.46.46,0,0,0-.64-.17l-2.42,1.4a.45.45,0,0,0-.17.63.46.46,0,0,0,.4.24.39.39,0,0,0,.23-.07l2.43-1.4A.46.46,0,0,0,226.17,400.84Zm14.14,35.08-2.42,1.4a.46.46,0,0,0-.17.64.47.47,0,0,0,.4.23.46.46,0,0,0,.23-.06l2.43-1.4a.47.47,0,0,0,.17-.64A.46.46,0,0,0,240.31,435.92Zm-1.21-42.55a.45.45,0,0,0-.63-.17L236,394.6a.47.47,0,0,0-.17.64.48.48,0,0,0,.4.23.53.53,0,0,0,.24-.06l2.42-1.4A.46.46,0,0,0,239.1,393.37Zm-6.46,3.73a.47.47,0,0,0-.64-.17l-2.43,1.4a.47.47,0,0,0-.17.64.48.48,0,0,0,.41.23.46.46,0,0,0,.23-.06l2.43-1.4A.47.47,0,0,0,232.64,397.1Zm1.21,42.55-2.43,1.4a.47.47,0,0,0-.17.64.46.46,0,0,0,.4.23.53.53,0,0,0,.24-.06l2.42-1.4a.47.47,0,0,0-.46-.81ZM219.7,404.57a.47.47,0,0,0-.64-.17l-2.42,1.4a.47.47,0,0,0-.17.64.45.45,0,0,0,.4.23.53.53,0,0,0,.24-.06l2.42-1.4A.46.46,0,0,0,219.7,404.57Zm-19.4,11.2a.47.47,0,0,0-.64-.17l-2.42,1.4a.46.46,0,0,0-.17.64.45.45,0,0,0,.4.23.46.46,0,0,0,.23-.06l2.43-1.4A.47.47,0,0,0,200.3,415.77Zm14.61,18.63-2.43-1.4a.46.46,0,0,0-.63.18.45.45,0,0,0,.17.63l2.42,1.4a.44.44,0,0,0,.24.07.47.47,0,0,0,.23-.88Zm-19.4-11.2-2.43-1.4a.47.47,0,0,0-.46.81L195,424a.53.53,0,0,0,.23.06.47.47,0,0,0,.41-.23A.47.47,0,0,0,195.51,423.2Zm-1.68-3.69a.45.45,0,0,0-.63-.17l-2.43,1.4a.46.46,0,0,0-.17.63.47.47,0,0,0,.4.24.44.44,0,0,0,.24-.07l2.42-1.4A.45.45,0,0,0,193.83,419.51Zm8.15,7.43-2.43-1.4a.46.46,0,0,0-.64.17.46.46,0,0,0,.17.63l2.43,1.4a.39.39,0,0,0,.23.07.49.49,0,0,0,.41-.24A.46.46,0,0,0,202,426.94Zm11.25-18.64a.46.46,0,0,0-.63-.17l-2.43,1.4a.47.47,0,0,0-.17.64.49.49,0,0,0,.41.24.41.41,0,0,0,.23-.07l2.42-1.4A.46.46,0,0,0,213.23,408.3Zm-4.79,22.37-2.42-1.4a.47.47,0,1,0-.47.81l2.43,1.4a.46.46,0,0,0,.23.06.45.45,0,0,0,.4-.23A.46.46,0,0,0,208.44,430.67ZM206.77,412a.47.47,0,0,0-.64-.17l-2.42,1.4a.46.46,0,0,0,.23.87.46.46,0,0,0,.23-.06l2.43-1.4A.47.47,0,0,0,206.77,412Zm51.33-26.13a.46.46,0,0,0,.23-.87l-.43-.25c.7-.6.6-1.43-.32-2a4.24,4.24,0,0,0-3.8,0,1.16,1.16,0,0,0,0,2.19,4.23,4.23,0,0,0,3.12.27l1,.56A.46.46,0,0,0,258.1,385.91Zm21,27.6-2.43,1.4a.47.47,0,0,0,.23.88.44.44,0,0,0,.24-.07l2.42-1.4a.47.47,0,0,0-.46-.81Zm-1.62-16.4a.48.48,0,0,0,.41-.23.47.47,0,0,0-.17-.64l-2.43-1.4a.47.47,0,0,0-.47.81l2.43,1.4A.46.46,0,0,0,277.5,397.11Zm6.47,3.74a.47.47,0,0,0,.4-.23.46.46,0,0,0-.17-.64l-2.42-1.4a.47.47,0,1,0-.47.81l2.43,1.4A.46.46,0,0,0,284,400.85Zm-11.32,16.4-2.43,1.4a.47.47,0,0,0-.17.64.48.48,0,0,0,.41.23.46.46,0,0,0,.23-.06l2.43-1.4a.47.47,0,0,0,.17-.64A.46.46,0,0,0,272.65,417.25Zm-27.08-27.62a.47.47,0,0,0-.64-.17l-2.42,1.4a.47.47,0,0,0-.17.64.45.45,0,0,0,.4.23.53.53,0,0,0,.24-.06l2.42-1.4A.47.47,0,0,0,245.57,389.63Zm44.87,14.95a.45.45,0,0,0,.4-.23.47.47,0,0,0-.17-.64l-2.42-1.4a.47.47,0,0,0-.47.81l2.42,1.4A.53.53,0,0,0,290.44,404.58Zm-4.86,5.2-2.42,1.4a.47.47,0,0,0-.17.64.45.45,0,0,0,.4.23.53.53,0,0,0,.24-.06l2.42-1.4a.47.47,0,0,0-.47-.81Zm7.11-3.56a.46.46,0,0,0-.64-.17l-2.42,1.4a.45.45,0,0,0-.17.63.46.46,0,0,0,.4.24.39.39,0,0,0,.23-.07l2.43-1.4A.46.46,0,0,0,292.69,406.22ZM252,385.9a.47.47,0,0,0-.64-.17l-2.42,1.4a.46.46,0,0,0-.17.64.45.45,0,0,0,.4.23.46.46,0,0,0,.23-.06l2.43-1.4A.47.47,0,0,0,252,385.9Zm1.21,42.55-2.43,1.4a.47.47,0,0,0-.17.64.48.48,0,0,0,.41.23.46.46,0,0,0,.23-.06l2.42-1.4a.46.46,0,0,0,.17-.64A.46.46,0,0,0,253.25,428.45Zm-6.47,3.73-2.43,1.4a.47.47,0,0,0-.17.64.48.48,0,0,0,.41.23.46.46,0,0,0,.23-.06l2.43-1.4a.47.47,0,0,0-.47-.81Zm17.79-42.53a.46.46,0,0,0,.4-.24.45.45,0,0,0-.17-.63l-2.42-1.4a.46.46,0,1,0-.47.8l2.43,1.4A.39.39,0,0,0,264.57,389.65ZM266.18,421l-2.42,1.4a.46.46,0,0,0-.17.64.45.45,0,0,0,.4.23.46.46,0,0,0,.23-.06l2.43-1.4a.47.47,0,0,0-.47-.81Zm-6.47,3.74-2.42,1.4a.47.47,0,0,0,.23.87.44.44,0,0,0,.24-.07l2.42-1.4a.46.46,0,1,0-.47-.8ZM271,393.38a.46.46,0,0,0,.4-.23.47.47,0,0,0-.17-.64l-2.43-1.4a.47.47,0,0,0-.46.81l2.42,1.4A.53.53,0,0,0,271,393.38Z" style="opacity: 0.2; transform-origin: 241.635px 412.521px;" class="animable"></path></g><g id="freepik--Arrow--inject-77" class="animable" style="transform-origin: 317.295px 412.295px;"><path d="M344.78,394.84l-62.9,4.92a2.59,2.59,0,0,0-2.35,2.54v4.16a4.14,4.14,0,0,0,2.12,3.4l40,19.66a1.57,1.57,0,0,0,2.41-1.3l.82-6.43a2.3,2.3,0,0,1,2.63-2l19.22,2.83a4.77,4.77,0,0,0,3.88-1.44l2.91-3.37a7.27,7.27,0,0,0,1.55-4.15v-4.15a2.83,2.83,0,0,0-2.34-2.71l-9-1.33,1.72-1a4.11,4.11,0,0,0,1.72-3.33V397A2.15,2.15,0,0,0,344.78,394.84Z" style="fill: rgb(59, 130, 246); transform-origin: 317.3px 412.295px;" id="elrgrw6b6n41l" class="animable"></path><g id="el7gqzrp30un3"><path d="M344.78,394.84l-62.9,4.92a2.59,2.59,0,0,0-2.35,2.54v4.16a4.14,4.14,0,0,0,2.12,3.4l40,19.66a1.57,1.57,0,0,0,2.41-1.3l.82-6.43a2.3,2.3,0,0,1,2.63-2l19.22,2.83a4.77,4.77,0,0,0,3.88-1.44l2.91-3.37a7.27,7.27,0,0,0,1.55-4.15v-4.15a2.83,2.83,0,0,0-2.34-2.71l-9-1.33,1.72-1a4.11,4.11,0,0,0,1.72-3.33V397A2.15,2.15,0,0,0,344.78,394.84Z" style="fill: rgb(255, 255, 255); opacity: 0.25; transform-origin: 317.3px 412.295px;" class="animable"></path></g><g id="el9qb3717oh1"><path d="M348.6,413.54v8.86a4.43,4.43,0,0,1-1.88.22l-19.21-2.83a2.37,2.37,0,0,0-1.38.26v-8.92a2.31,2.31,0,0,1,1.38-.22l19.21,2.83A4.26,4.26,0,0,0,348.6,413.54Z" style="fill: rgb(255, 255, 255); opacity: 0.2; transform-origin: 337.365px 416.763px;" class="animable"></path></g><g id="elez4sabbi3ee"><path d="M322.83,420.83v8.88a1.79,1.79,0,0,1-1.19-.19l-40-19.66a4.14,4.14,0,0,1-2.12-3.4V402.3A2.62,2.62,0,0,1,281,400c-.29.24-.06.6.69,1l40,19.66A1.85,1.85,0,0,0,322.83,420.83Z" style="fill: rgb(255, 255, 255); opacity: 0.2; transform-origin: 301.175px 414.87px;" class="animable"></path></g><g id="eldl48f3lzjs6"><path d="M344.78,394.84l-62.9,4.92c-1.3.1-1.4.65-.23,1.22l40,19.67a1.58,1.58,0,0,0,2.41-1.31l.82-6.43a2.3,2.3,0,0,1,2.63-2l19.22,2.82a4.77,4.77,0,0,0,3.88-1.44l2.91-3.37c.86-1,.5-1.94-.79-2.13L333.5,404c-1.29-.19-1.41-.86-.27-1.5l11.84-6.66C346.21,395.18,346.08,394.74,344.78,394.84Z" style="fill: rgb(255, 255, 255); opacity: 0.45; transform-origin: 317.411px 407.856px;" class="animable"></path></g></g></g><defs>     <filter id="active" height="200%">         <feMorphology in="SourceAlpha" result="DILATED" operator="dilate" radius="2"></feMorphology>                <feFlood flood-color="#32DFEC" flood-opacity="1" result="PINK"></feFlood>        <feComposite in="PINK" in2="DILATED" operator="in" result="OUTLINE"></feComposite>        <feMerge>            <feMergeNode in="OUTLINE"></feMergeNode>            <feMergeNode in="SourceGraphic"></feMergeNode>        </feMerge>    </filter>    <filter id="hover" height="200%">        <feMorphology in="SourceAlpha" result="DILATED" operator="dilate" radius="2"></feMorphology>                <feFlood flood-color="#ff0000" flood-opacity="0.5" result="PINK"></feFlood>        <feComposite in="PINK" in2="DILATED" operator="in" result="OUTLINE"></feComposite>        <feMerge>            <feMergeNode in="OUTLINE"></feMergeNode>            <feMergeNode in="SourceGraphic"></feMergeNode>        </feMerge>            <feColorMatrix type="matrix" values="0   0   0   0   0                0   1   0   0   0                0   0   0   0   0                0   0   0   1   0 "></feColorMatrix>    </filter></defs></svg>